# xmcd
#
# Track frame offsets: 
#        150
#        31866
#        46998
#        71063
#        100478
#        122660
#        153426
#        171261
#        205635
#        224392
#        252441
#
# Disc length: 3675 seconds
#
# Revision: 0
# Processed by: cddbd v1.5.2PL0 Copyright (c) Steve Scherf et al.
# Submitted via: ExactAudioCopy v0.99pb5
#
DISCID=9b0e590b
DTITLE=Sagittarius - Deszczowy Blues
DYEAR=2012
DGENRE=Blues
TTITLE0=01.M³ode Lata
TTITLE1=02.Ciê¿kie Srebro
TTITLE2=03.Kiedy By³em Ma³y
TTITLE3=04.Ko³ysanka Dla Syna
TTITLE4=05.Jeszcze Jedna Chwila
TTITLE5=06.Jestes Moj¹ Muzyk¹07.Stary Jeep
TTITLE6=07.Stary Jeep
TTITLE7=08.Samotny Deszczowy Blues
TTITLE8=09.To moje miasto
TTITLE9=10.Dworcowa £awka
TTITLE10=11.Mysla³es Ze
EXTD=
EXTT0=
EXTT1=
EXTT2=
EXTT3=
EXTT4=
EXTT5=
EXTT6=
EXTT7=
EXTT8=
EXTT9=
EXTT10=
PLAYORDER=
